<svg width="128" height="128" viewBox="0 0 128 128" fill="none" xmlns="http://www.w3.org/2000/svg">
<rect width="128" height="128" rx="50" fill="url(#paint0_linear_176_1712)"/>
<g clip-path="url(#clip0_176_1712)">
<path d="M103.841 75.0386C101.307 83.3131 96.2284 90.5775 89.3277 95.7978C83.2691 100.359 76.0595 103.14 68.5081 103.831C60.9567 104.521 53.3624 103.092 46.5776 99.7053C39.7929 96.3183 34.0862 91.1069 30.0981 84.656C26.11 78.2052 23.9984 70.7702 24.0002 63.1857C23.9732 54.3329 26.8505 45.7158 32.1906 38.6559C37.4099 31.7537 44.6726 26.6737 52.9453 24.139C53.4905 23.9711 54.0712 23.955 54.6249 24.0925C55.1786 24.23 55.6843 24.5158 56.0877 24.9193C56.4912 25.3228 56.777 25.8287 56.9144 26.3825C57.0519 26.9363 57.0358 27.5171 56.8679 28.0625C55.059 34.0475 54.9073 40.4113 56.4291 46.4757C57.9508 52.5402 61.089 58.0781 65.5093 62.4993C69.9295 66.9205 75.4661 70.0594 81.5292 71.5815C87.5923 73.1036 93.9547 72.9519 99.9384 71.1425C100.484 70.9746 101.064 70.9585 101.618 71.096C102.172 71.2335 102.677 71.5194 103.081 71.9229C103.484 72.3264 103.77 72.8322 103.908 73.386C104.045 73.9399 104.029 74.5207 103.861 75.066L103.841 75.0386Z" fill="white"/>
</g>
<defs>
<linearGradient id="paint0_linear_176_1712" x1="1.75209e-06" y1="0.94888" x2="128" y2="127.051" gradientUnits="userSpaceOnUse">
<stop stop-color="#A6D958"/>
<stop offset="1" stop-color="#8EADFF"/>
</linearGradient>
<clipPath id="clip0_176_1712">
<rect width="80" height="80" fill="white" transform="translate(24 24)"/>
</clipPath>
</defs>
</svg>
